<?xml version="1.0" encoding="utf-8"?>
<!-- Generator: Adobe Illustrator 22.0.1, SVG Export Plug-In . SVG Version: 6.00 Build 0)  -->
<svg version="1.1" id="Layer_1" xmlns="http://www.w3.org/2000/svg" xmlns:xlink="http://www.w3.org/1999/xlink" x="0px" y="0px"
	 viewBox="0 0 50 48.8" style="enable-background:new 0 0 50 48.8;" xml:space="preserve">
<style type="text/css">
	.st0{fill:#FEE573;}
	.st1{fill:#E6E6E6;}
	.st2{fill:#E5E3E3;}
	.st3{fill:#999999;}
	.st4{fill:#CCCCCC;}
	.st5{fill:none;stroke:#CCCCCC;stroke-width:4;stroke-linecap:round;stroke-miterlimit:10;}
	.st6{fill:#4E60A0;}
	.st7{fill:#B3B3B3;}
	.st8{fill:#BCCECB;}
	.st9{fill:#FFFF00;}
	.st10{fill:none;}
	.st11{fill:#666666;}
	.st12{fill:#FFFFFF;}
</style>
<g>
	<path class="st3" d="M39.5,15c0-3.9-1.5-7.6-4.2-10.4C31.5,0.9,26.1-0.6,20.7,1c-0.7,0.2-1.4,0.5-2,0.8c-4.1,2.1-6.9,5.7-7.8,10
		C4.9,12.6,0.3,17.8,0.3,23.9c0,5.5,3.6,10.1,8.6,11.7l2.3-3.8c-3.8-0.7-6.6-3.9-6.6-7.9c0-4.2,3.2-7.7,7.3-8
		c1.5-0.1,2.7-1.2,2.9-2.7c0.4-2.1,1.3-4.1,2.9-5.6c1.9-1.9,4.5-3,7.3-3c2.8,0,5.3,1.1,7.3,3c2.1,2.1,3.2,5.1,3,8.1
		c-0.1,0.9,0.2,1.7,0.7,2.4c0.6,0.7,1.3,1.1,2.2,1.2c0.1,0,0.2,0,0.3,0l0.4,0c3.3,0,6.4,2.6,6.6,5.9c0.3,3.8-2.6,6.8-6.3,6.8h-1
		l-2.5,4.2l3.2,0c5.2,0,9.9-3.7,10.8-8.8C50.6,20.9,45.7,15.3,39.5,15z M11.6,11.7C11.6,11.7,11.6,11.7,11.6,11.7
		C11.6,11.7,11.6,11.7,11.6,11.7z M38.5,15C38.5,15,38.5,15,38.5,15C38.5,15,38.5,15,38.5,15L38.5,15L38.5,15z M39.5,16.1
		C39.5,16.1,39.5,16.1,39.5,16.1C39.5,16.1,39.5,16.1,39.5,16.1z"/>
	<path class="st11" d="M21.2,48.5c-0.4,0-0.7-0.1-1.1-0.3c-1-0.6-1.4-1.9-0.8-2.9l5-8.6h-5.3c-0.8,0-1.4-0.4-1.8-1
		c-0.4-0.6-0.4-1.4,0-2.1l4.5-8.2c0.6-1,1.9-1.4,2.9-0.9c1,0.6,1.4,1.9,0.8,2.9l-2.8,5.1h5.4c0.8,0,1.5,0.4,1.9,1.1
		c0.4,0.7,0.4,1.5,0,2.1l-6.9,11.8C22.7,48.1,22,48.5,21.2,48.5z"/>
</g>
</svg>
